REM DIRINDEX 1\2,1\3,1\4,1\5
REM DIRNAME "folder01","folder02","folder03","folder04","folder05"
TITLE ""
FILE "1Q_t_1339-1348.mp3" MP3
  TRACK 01 AUDIO
    TITLE "3:cjc172_4992"
    INDEX 01 00:00:00
  TRACK 02 AUDIO
    TITLE "0:"
    INDEX 01 00:01:14
  TRACK 03 AUDIO
    TITLE "4:cjc172_4993"
    INDEX 01 00:01:23
  TRACK 04 AUDIO
    TITLE "0:"
    INDEX 01 00:02:33
  TRACK 05 AUDIO
    TITLE "5:cjc172_4994"
    INDEX 01 00:02:39
  TRACK 06 AUDIO
    TITLE "0:"
    INDEX 01 00:07:59
  TRACK 07 AUDIO
    TITLE "3:cjc172_4995"
    INDEX 01 00:08:29
  TRACK 08 AUDIO
    TITLE "0:"
    INDEX 01 00:09:25
  TRACK 09 AUDIO
    TITLE "4:cjc172_4996"
    INDEX 01 00:09:31
  TRACK 10 AUDIO
    TITLE "0:"
    INDEX 01 00:11:45
  TRACK 11 AUDIO
    TITLE "5:cjc172_4997"
    INDEX 01 00:11:51
  TRACK 12 AUDIO
    TITLE "0:"
    INDEX 01 00:17:05
  TRACK 13 AUDIO
    TITLE "3:cjc172_4998"
    INDEX 01 00:17:50
  TRACK 14 AUDIO
    TITLE "0:"
    INDEX 01 00:18:67
  TRACK 15 AUDIO
    TITLE "4:cjc172_4999"
    INDEX 01 00:18:73
  TRACK 16 AUDIO
    TITLE "0:"
    INDEX 01 00:20:03
  TRACK 17 AUDIO
    TITLE "5:cjc172_5000"
    INDEX 01 00:20:07
  TRACK 18 AUDIO
    TITLE "0:"
    INDEX 01 00:24:73
  TRACK 19 AUDIO
    TITLE "3:cjc172_5001"
    INDEX 01 00:25:46
  TRACK 20 AUDIO
    TITLE "0:"
    INDEX 01 00:26:43
  TRACK 21 AUDIO
    TITLE "4:cjc172_5002"
    INDEX 01 00:26:51
  TRACK 22 AUDIO
    TITLE "0:"
    INDEX 01 00:28:54
  TRACK 23 AUDIO
    TITLE "5:cjc172_5003"
    INDEX 01 00:28:60
  TRACK 24 AUDIO
    TITLE "0:"
    INDEX 01 00:34:25
  TRACK 25 AUDIO
    TITLE "3:cjc172_5004"
    INDEX 01 00:34:70
  TRACK 26 AUDIO
    TITLE "0:"
    INDEX 01 00:36:14
  TRACK 27 AUDIO
    TITLE "4:cjc172_5005"
    INDEX 01 00:36:20
  TRACK 28 AUDIO
    TITLE "0:"
    INDEX 01 00:39:26
  TRACK 29 AUDIO
    TITLE "5:cjc172_5006"
    INDEX 01 00:39:34
  TRACK 30 AUDIO
    TITLE "0:"
    INDEX 01 00:45:44
  TRACK 31 AUDIO
    TITLE "3:cjc172_5007"
    INDEX 01 00:46:14
  TRACK 32 AUDIO
    TITLE "0:"
    INDEX 01 00:47:37
  TRACK 33 AUDIO
    TITLE "4:cjc172_5008"
    INDEX 01 00:47:43
  TRACK 34 AUDIO
    TITLE "0:"
    INDEX 01 00:49:40
  TRACK 35 AUDIO
    TITLE "5:cjc172_5009"
    INDEX 01 00:49:48
  TRACK 36 AUDIO
    TITLE "0:"
    INDEX 01 00:56:11
  TRACK 37 AUDIO
    TITLE "3:cjc172_5010"
    INDEX 01 00:56:56
  TRACK 38 AUDIO
    TITLE "0:"
    INDEX 01 00:58:06
  TRACK 39 AUDIO
    TITLE "4:cjc172_5011"
    INDEX 01 00:58:14
  TRACK 40 AUDIO
    TITLE "0:"
    INDEX 01 01:00:20
  TRACK 41 AUDIO
    TITLE "5:cjc172_5012"
    INDEX 01 01:00:26
  TRACK 42 AUDIO
    TITLE "0:"
    INDEX 01 01:06:05
  TRACK 43 AUDIO
    TITLE "3:cjc172_5013"
    INDEX 01 01:06:50
  TRACK 44 AUDIO
    TITLE "0:"
    INDEX 01 01:07:69
  TRACK 45 AUDIO
    TITLE "4:cjc172_5014"
    INDEX 01 01:07:75
  TRACK 46 AUDIO
    TITLE "0:"
    INDEX 01 01:09:74
  TRACK 47 AUDIO
    TITLE "5:cjc172_5015"
    INDEX 01 01:10:05
  TRACK 48 AUDIO
    TITLE "0:"
    INDEX 01 01:16:15
  TRACK 49 AUDIO
    TITLE "3:cjc172_5016"
    INDEX 01 01:16:60
  TRACK 50 AUDIO
    TITLE "0:"
    INDEX 01 01:18:06
  TRACK 51 AUDIO
    TITLE "4:cjc172_5017"
    INDEX 01 01:18:12
  TRACK 52 AUDIO
    TITLE "0:"
    INDEX 01 01:19:02
  TRACK 53 AUDIO
    TITLE "5:cjc172_5018"
    INDEX 01 01:19:08
  TRACK 54 AUDIO
    TITLE "0:"
    INDEX 01 01:25:07
  TRACK 55 AUDIO
    TITLE "3:cjc172_5019"
    INDEX 01 01:25:52
  TRACK 56 AUDIO
    TITLE "0:"
    INDEX 01 01:26:69
  TRACK 57 AUDIO
    TITLE "4:cjc172_5020"
    INDEX 01 01:26:75
  TRACK 58 AUDIO
    TITLE "0:"
    INDEX 01 01:28:09
  TRACK 59 AUDIO
    TITLE "5:cjc172_5021"
    INDEX 01 01:28:15
  TRACK 60 AUDIO
    TITLE "0:"
    INDEX 01 01:35:19
